HIERARCHY
ROOT SpineBase
{
  OFFSET 0.000000 0.000000 0.000000
  CHANNELS 6 Xposition Yposition Zposition Zrotation Xrotation Yrotation
  JOINT SpineMid
  {
    OFFSET 0.000000 24.862946 0.000000
    CHANNELS 3 Zrotation Xrotation Yrotation
    JOINT SpineShoulder
    {
      OFFSET -0.114524 18.592200 -0.671524
      CHANNELS 3 Zrotation Xrotation Yrotation
      JOINT Neck
      {
        OFFSET -0.060392 6.220547 -0.531683
        CHANNELS 3 Zrotation Xrotation Yrotation
        JOINT Head
        {
          OFFSET 3.457526 11.663617 2.873542
          CHANNELS 3 Zrotation Xrotation Yrotation
          End Site
          {
            OFFSET 0 0 0
          }
        }
      }
      JOINT ShoulderLeft
      {
        OFFSET -10.146426 -1.574674 -10.486662
        CHANNELS 3 Zrotation Xrotation Yrotation
        JOINT ElbowLeft
        {
          OFFSET -5.130835 -18.296972 -5.447968
          CHANNELS 3 Zrotation Xrotation Yrotation
          JOINT WristLeft
          {
            OFFSET -1.928767 -13.439353 -12.716824
            CHANNELS 3 Zrotation Xrotation Yrotation
            JOINT HandLeft
            {
              OFFSET -0.011949 -2.555014 -1.465962
              CHANNELS 3 Zrotation Xrotation Yrotation
              JOINT HandTipLeft
              {
                OFFSET 3.300360 -4.501384 -2.441190
                CHANNELS 3 Zrotation Xrotation Yrotation
                End Site
                {
                  OFFSET 0 0 0
                }
              }
              JOINT ThumbLeft
              {
                OFFSET 1.099926 3.345885 -3.785633
                CHANNELS 3 Zrotation Xrotation Yrotation
                End Site
                {
                  OFFSET 0 0 0
                }
              }
            }
          }
        }
      }
      JOINT ShoulderRight
      {
        OFFSET 13.659590 -5.016938 5.806702
        CHANNELS 3 Zrotation Xrotation Yrotation
        JOINT ElbowRight
        {
          OFFSET 3.119784 -22.777154 2.392190
          CHANNELS 3 Zrotation Xrotation Yrotation
          JOINT WristRight
          {
            OFFSET 7.456948 -14.550718 -9.039443
            CHANNELS 3 Zrotation Xrotation Yrotation
            JOINT HandRight
            {
              OFFSET 2.964003 -3.454163 -2.512870
              CHANNELS 3 Zrotation Xrotation Yrotation
              JOINT HandTipRight
              {
                OFFSET -0.620796 -1.438006 -3.459457
                CHANNELS 3 Zrotation Xrotation Yrotation
                End Site
                {
                  OFFSET 0 0 0
                }
              }
              JOINT ThumbRight
              {
                OFFSET -2.897739 1.290442 -0.601520
                CHANNELS 3 Zrotation Xrotation Yrotation
                End Site
                {
                  OFFSET 0 0 0
                }
              }
            }
          }
        }
      }
    }
  }
  JOINT HipLeft
  {
    OFFSET -5.015623 1.745502 -6.342699
    CHANNELS 3 Zrotation Xrotation Yrotation
    JOINT KneeLeft
    {
      OFFSET 15.386159 3.882205 -27.333362
      CHANNELS 3 Zrotation Xrotation Yrotation
      JOINT AnkleLeft
      {
        OFFSET 2.542788 -35.439400 -10.133454
        CHANNELS 3 Zrotation Xrotation Yrotation
        JOINT FootLeft
        {
          OFFSET -3.402165 -8.301192 1.643071
          CHANNELS 3 Zrotation Xrotation Yrotation
          End Site
          {
            OFFSET 0 0 0
          }
        }
      }
    }
  }
  JOINT HipRight
  {
    OFFSET 4.798277 0.723178 -0.044843
    CHANNELS 3 Zrotation Xrotation Yrotation
    JOINT KneeRight
    {
      OFFSET 27.698888 -7.647269 -16.677004
      CHANNELS 3 Zrotation Xrotation Yrotation
      JOINT AnkleRight
      {
        OFFSET -3.618613 -27.861246 -1.526713
        CHANNELS 3 Zrotation Xrotation Yrotation
        JOINT FootRight
        {
          OFFSET -0.723520 -6.815770 -6.309602
          CHANNELS 3 Zrotation Xrotation Yrotation
          End Site
          {
            OFFSET 0 0 0
          }
        }
      }
    }
  }
}
MOTION
Frames: 10
Frame Time: 0.033333
10.738600 43.576522 364.575433 -0.000000 0.000000 -32.689433 -0.000000 0.000000 32.689433 -0.000000 0.000000 0.000000 -0.000000 0.000000 0.000000 0.000000 0.000000 0.000000 -0.000000 0.000000 0.000000 -0.000000 0.000000 0.000000 -0.000000 0.000000 0.000000 -0.000000 0.000000 0.000000 0.000000 0.000000 0.000000 0.000000 0.000000 0.000000 -0.000000 0.000000 0.000000 -0.000000 0.000000 0.000000 -0.000000 0.000000 0.000000 -0.000000 0.000000 0.000000 0.000000 0.000000 0.000000 0.000000 0.000000 0.000000 -0.000000 0.000000 32.689433 -0.000000 0.000000 0.000000 -0.000000 0.000000 0.000000 0.000000 0.000000 0.000000 -0.000000 0.000000 32.689433 -0.000000 0.000000 0.000000 -0.000000 0.000000 0.000000 0.000000 0.000000 0.000000
10.726866 43.558498 364.574025 0.082091 0.022849 -32.903284 -0.056510 -0.063777 32.903236 -0.000000 0.000000 0.000000 -0.000000 0.000000 0.000000 0.000000 0.000000 0.000000 2.171078 -1.623620 -0.161972 -3.756960 3.269995 1.520453 4.483800 -6.165959 -2.761164 -2.972609 7.288848 3.840988 0.000000 0.000000 0.000000 0.000000 0.000000 0.000000 -0.000000 0.000000 0.000000 -0.872938 4.401963 2.776875 -9.450372 0.295519 8.632912 8.477731 -10.849851 -9.367989 0.000000 0.000000 0.000000 0.000000 0.000000 0.000000 -0.106005 -0.841053 32.157909 -1.172230 -0.585258 1.128829 5.379946 7.742689 -2.723644 0.000000 0.000000 0.000000 -0.056510 -0.063777 32.903236 -0.000000 0.000000 0.000000 2.824727 4.379045 -3.086639 0.000000 0.000000 0.000000
10.714729 43.542778 364.574123 0.155874 0.048816 -33.087523 -0.103948 -0.125994 33.087343 -0.000000 0.000000 0.000000 -0.000000 0.000000 0.000000 0.000000 0.000000 0.000000 3.637553 -2.737855 -0.232325 -6.332885 5.523463 2.645013 7.884384 -11.679125 -4.593409 -5.994163 13.846998 7.460882 0.000000 0.000000 0.000000 0.000000 0.000000 0.000000 -0.000000 0.000000 0.000000 -1.750509 7.782341 5.024759 -19.232095 1.260411 18.097272 14.155307 -21.418169 -19.880985 0.000000 0.000000 0.000000 0.000000 0.000000 0.000000 -0.185800 -1.506715 31.826134 -1.952294 -1.026171 1.908797 10.992103 15.256520 -6.113195 0.000000 0.000000 0.000000 -0.103948 -0.125994 33.087343 -0.000000 0.000000 0.000000 5.379602 7.915828 -5.847135 0.000000 0.000000 0.000000
10.702188 43.529361 364.575730 0.221341 0.077899 -33.242097 -0.142419 -0.186485 33.241714 -0.000000 0.000000 0.000000 -0.280224 -1.025871 0.371192 0.000000 0.000000 0.000000 4.461861 -3.383984 -0.253113 -7.770718 6.865681 3.277794 10.171106 -16.076988 -5.612779 -8.659000 19.140046 10.517469 0.000000 0.000000 0.000000 0.000000 0.000000 0.000000 -0.000000 0.000000 0.000000 -2.523125 10.159594 6.709493 -27.528595 2.474501 27.130422 16.368521 -31.091496 -29.957284 0.000000 0.000000 0.000000 0.000000 0.000000 0.000000 -0.236113 -1.996831 31.694811 -2.353598 -1.288212 2.341261 16.600405 21.943827 -9.980244 0.000000 0.000000 0.000000 -0.592236 -1.017783 33.432583 0.833411 0.445875 -0.198839 7.547561 10.638375 -8.171400 0.000000 0.000000 0.000000
10.689244 43.518248 364.578844 0.278483 0.110096 -33.366967 -0.172028 -0.245113 33.366332 -0.000000 0.000000 0.000000 -0.355521 -1.313177 0.473705 0.000000 0.000000 0.000000 4.677229 -3.586115 -0.246094 -8.095327 7.364162 3.373024 11.337117 -19.055407 -5.947616 -10.554154 22.806136 12.629710 0.000000 0.000000 0.000000 0.000000 0.000000 0.000000 -0.000000 0.000000 0.000000 -3.115268 11.581002 7.811153 -33.498453 4.130611 35.222021 15.342042 -39.008607 -39.211319 0.000000 0.000000 0.000000 0.000000 0.000000 0.000000 -0.255231 -2.311413 31.764232 -2.385116 -1.352359 2.427224 21.719510 27.285995 -13.884219 0.000000 0.000000 0.000000 -0.698457 -1.235957 33.566250 0.986509 0.534484 -0.211324 9.251200 12.618464 -9.988515 0.000000 0.000000 0.000000
10.675896 43.509439 364.583466 0.327294 0.145405 -33.462120 -0.192873 -0.301768 33.461197 -0.000000 0.000000 0.000000 -0.421834 -1.572385 0.565571 0.000000 0.000000 0.000000 4.288179 -3.348753 -0.216842 -7.316287 7.041189 2.924617 11.412135 -20.496552 -5.704415 -11.388754 24.681463 13.496940 0.000000 0.000000 0.000000 0.000000 0.000000 0.000000 0.628474 0.694885 0.157357 -4.068967 11.407016 8.107475 -37.295099 6.591765 42.627265 11.700982 -44.995243 -47.851738 0.000000 0.000000 0.000000 0.000000 0.000000 0.000000 -0.242997 -2.450346 32.034447 -2.048469 -1.213492 2.165666 25.703004 31.023190 -17.205156 0.000000 0.000000 0.000000 -0.761077 -1.393183 33.643777 1.077735 0.593708 -0.196569 10.445754 13.935108 -11.258950 0.000000 0.000000 0.000000
10.661208 43.502333 364.583957 0.368132 0.206390 -33.500086 -0.193070 -0.375289 33.498791 -0.000000 0.000000 0.000000 -0.440316 -1.885162 0.662040 0.000000 0.000000 0.000000 1.116421 -1.379786 0.068386 -1.488674 3.321890 0.048362 6.408978 -18.531133 -2.574010 -8.800355 21.160658 9.496241 0.000000 0.000000 0.000000 0.000000 0.000000 0.000000 0.711713 0.792460 0.178350 -4.357795 11.067206 8.110668 -39.847927 9.409539 49.446202 9.407020 -48.073205 -54.854197 0.000000 0.000000 0.000000 0.000000 0.000000 0.000000 -0.172258 -2.530959 32.557396 -1.026643 -0.797476 1.393607 34.062861 37.529449 -24.836931 0.000000 0.000000 0.000000 -0.893229 -1.776599 33.619270 1.358988 0.779076 -0.142868 12.272303 15.435203 -13.157303 0.000000 0.000000 0.000000
10.643287 43.496661 364.592742 0.397704 0.252608 -33.623042 -0.191299 -0.430562 33.621446 -0.000000 0.000000 0.000000 -0.440391 -2.114775 0.729816 0.000000 0.000000 0.000000 -1.267936 -0.110420 0.406143 2.095439 0.691438 -1.274653 4.756776 -12.830907 -1.675997 -8.029657 14.817980 7.372120 0.000000 0.000000 0.000000 0.000000 0.000000 0.000000 0.720925 0.877591 0.190390 -4.316887 9.610757 7.393849 -38.612856 13.246453 52.597109 4.061229 -48.989500 -57.164623 0.000000 0.000000 0.000000 0.000000 0.000000 0.000000 -0.006057 -4.009249 33.108875 0.692840 0.968604 0.681266 33.622497 38.050336 -25.241454 0.000000 0.000000 0.000000 -0.573421 -1.248967 33.594906 0.771140 0.470239 0.017775 13.129368 15.930358 -14.030246 0.000000 0.000000 0.000000
10.628610 43.367552 364.868431 0.400404 -0.179026 -33.905816 -0.432183 -0.074775 33.906159 -0.000000 0.000000 0.000000 -0.461811 -2.263730 0.778640 0.000000 0.000000 0.000000 -3.484691 1.091067 0.756510 5.894351 -1.763217 -2.858744 1.068787 -9.724382 0.704331 -4.612506 12.266262 4.434319 0.000000 0.000000 0.000000 0.000000 0.000000 0.000000 0.763260 0.924205 0.200585 -3.974578 7.781510 6.239872 -39.790016 21.530253 62.469238 -10.029204 -52.776919 -69.633480 0.000000 0.000000 0.000000 0.000000 0.000000 0.000000 -0.073647 -1.717275 35.557083 1.894742 0.748331 -2.092370 19.937654 27.304722 -13.304067 0.000000 0.000000 0.000000 -0.432183 -0.074775 33.906159 -0.000000 0.000000 0.000000 12.211578 15.703994 -13.124756 0.000000 0.000000 0.000000
10.603407 43.399943 364.846174 0.405102 -0.035911 -33.476725 -0.357709 -0.193499 33.476248 -0.000000 0.000000 0.000000 -0.560252 -2.309280 0.814235 0.000000 0.000000 0.000000 -4.352550 2.159922 0.760554 7.411201 -3.390957 -3.241753 -0.346096 -9.948018 1.740151 -2.823837 13.702246 3.689621 0.000000 0.000000 0.000000 0.000000 0.000000 0.000000 0.760014 0.903831 0.197612 -3.337829 5.582974 4.714234 -35.852723 24.841062 59.888297 -9.420264 -51.616475 -66.940876 0.000000 0.000000 0.000000 0.000000 0.000000 0.000000 -0.129984 0.574389 35.881166 2.231196 -0.097336 -3.168863 14.977285 21.721282 -9.132579 0.000000 0.000000 0.000000 -0.357709 -0.193499 33.476248 -0.000000 0.000000 0.000000 8.000394 13.733734 -8.902076 0.000000 0.000000 0.000000
